<svg width="180" height="48" viewBox="0 0 180 48" fill="none" xmlns="http://www.w3.org/2000/svg">
<path d="M1.09091 47V42.9091L26.1818 5.45454H0.818182V0.454544H32.9091V4.54545L7.81818 42H33.1818V47H1.09091ZM56.5455 47.7273C53.1818 47.7273 50.2803 46.9848 47.8409 45.5C45.4167 44 43.5455 41.9091 42.2273 39.2273C40.9242 36.5303 40.2727 33.3939 40.2727 29.8182C40.2727 26.2424 40.9242 23.0909 42.2273 20.3636C43.5455 17.6212 45.3788 15.4848 47.7273 13.9545C50.0909 12.4091 52.8485 11.6364 56 11.6364C57.8182 11.6364 59.6136 11.9394 61.3864 12.5455C63.1591 13.1515 64.7727 14.1364 66.2273 15.5C67.6818 16.8485 68.8409 18.6364 69.7045 20.8636C70.5682 23.0909 71 25.8333 71 29.0909V31.3636H44.0909V26.7273H65.5455C65.5455 24.7576 65.1515 23 64.3636 21.4545C63.5909 19.9091 62.4848 18.6894 61.0455 17.7955C59.6212 16.9015 57.9394 16.4545 56 16.4545C53.8636 16.4545 52.0152 16.9848 50.4545 18.0455C48.9091 19.0909 47.7197 20.4545 46.8864 22.1364C46.053 23.8182 45.6364 25.6212 45.6364 27.5455V30.6364C45.6364 33.2727 46.0909 35.5076 47 37.3409C47.9242 39.1591 49.2045 40.5455 50.8409 41.5C52.4773 42.4394 54.3788 42.9091 56.5455 42.9091C57.9545 42.9091 59.2273 42.7121 60.3636 42.3182C61.5152 41.9091 62.5076 41.303 63.3409 40.5C64.1742 39.6818 64.8182 38.6667 65.2727 37.4545L70.4545 38.9091C69.9091 40.6667 68.9924 42.2121 67.7045 43.5455C66.4167 44.8636 64.8258 45.8939 62.9318 46.6364C61.0379 47.3636 58.9091 47.7273 56.5455 47.7273ZM92.3409 47.7273C89.4318 47.7273 86.8636 46.9924 84.6364 45.5227C82.4091 44.0379 80.6667 41.947 79.4091 39.25C78.1515 36.5379 77.5227 33.3333 77.5227 29.6364C77.5227 25.9697 78.1515 22.7879 79.4091 20.0909C80.6667 17.3939 82.4167 15.3106 84.6591 13.8409C86.9015 12.3712 89.4924 11.6364 92.4318 11.6364C94.7045 11.6364 96.5 12.0152 97.8182 12.7727C99.1515 13.5152 100.167 14.3636 100.864 15.3182C101.576 16.2576 102.129 17.0303 102.523 17.6364H102.977V0.454544H108.341V47H103.159V41.6364H102.523C102.129 42.2727 101.568 43.0758 100.841 44.0455C100.114 45 99.0758 45.8561 97.7273 46.6136C96.3788 47.3561 94.5833 47.7273 92.3409 47.7273ZM93.0682 42.9091C95.2197 42.9091 97.0379 42.3485 98.5227 41.2273C100.008 40.0909 101.136 38.5227 101.909 36.5227C102.682 34.5076 103.068 32.1818 103.068 29.5455C103.068 26.9394 102.689 24.6591 101.932 22.7045C101.174 20.7348 100.053 19.2045 98.5682 18.1136C97.0833 17.0076 95.25 16.4545 93.0682 16.4545C90.7955 16.4545 88.9015 17.0379 87.3864 18.2045C85.8864 19.3561 84.7576 20.9242 84 22.9091C83.2576 24.8788 82.8864 27.0909 82.8864 29.5455C82.8864 32.0303 83.2652 34.2879 84.0227 36.3182C84.7955 38.3333 85.9318 39.9394 87.4318 41.1364C88.947 42.3182 90.8258 42.9091 93.0682 42.9091Z" fill="#C8E949"/>
<path d="M121.545 47H115.636L132.727 0.454544H138.545L155.636 47H149.727L135.818 7.81818H135.455L121.545 47ZM123.727 28.8182H147.545V33.8182H123.727V28.8182ZM162.159 47V12.0909H167.341V17.3636H167.705C168.341 15.6364 169.492 14.2348 171.159 13.1591C172.826 12.0833 174.705 11.5455 176.795 11.5455C177.189 11.5455 177.682 11.553 178.273 11.5682C178.864 11.5833 179.311 11.6061 179.614 11.6364V17.0909C179.432 17.0455 179.015 16.9773 178.364 16.8864C177.727 16.7803 177.053 16.7273 176.341 16.7273C174.644 16.7273 173.129 17.0833 171.795 17.7955C170.477 18.4924 169.432 19.4621 168.659 20.7045C167.902 21.9318 167.523 23.3333 167.523 24.9091V47H162.159Z" fill="#2C3E50"/>
</svg>
