<svg width="740" height="668" viewBox="0 0 740 668" fill="none" xmlns="http://www.w3.org/2000/svg">
<rect x="162.071" y="332.035" width="403" height="403" transform="rotate(-45 162.071 332.035)" fill="white" stroke="#C8E949" stroke-width="10"/>
<path d="M7.07107 332.035L292.035 47.0711L576.999 332.035L292.035 616.999L7.07107 332.035Z" fill="white" stroke="#2C3E50" stroke-width="10"/>
<path d="M196.9 504C190 504 184 501.45 178.9 496.35C174.1 491.25 171.7 485.25 171.7 478.35V468C171.7 450.6 176.35 435 185.65 421.2L309.4 238.5V238.05L309.85 237.6C309.85 237.3 309.7 237.15 309.4 237.15H196.9C190 237.15 184 234.6 178.9 229.5C174.1 224.4 171.7 218.4 171.7 211.5V201.15C171.7 194.25 174.1 188.25 178.9 183.15C184 178.05 190 175.5 196.9 175.5H374.2C381.1 175.5 386.95 178.05 391.75 183.15C396.85 188.25 399.4 194.25 399.4 201.15V211.5C399.4 228.9 394.75 244.5 385.45 258.3L261.7 441V441.45L261.25 441.9C261.25 442.2 261.4 442.35 261.7 442.35H374.2C381.1 442.35 386.95 444.9 391.75 450C396.85 455.1 399.4 461.1 399.4 468V478.35C399.4 485.25 396.85 491.25 391.75 496.35C386.95 501.45 381.1 504 374.2 504H196.9Z" fill="#C8E949"/>
<path d="M398.35 235.8V322.2C398.35 324.9 399.55 326.25 401.95 326.25H423.55C444.55 326.25 460.6 321.9 471.7 313.2C482.8 304.2 488.35 291.75 488.35 275.85C488.35 244.65 467.8 229.05 426.7 229.05C417.4 229.05 409.3 229.65 402.4 230.85C399.7 231.45 398.35 233.1 398.35 235.8ZM348.85 504C341.95 504 335.95 501.45 330.85 496.35C325.75 491.25 323.2 485.25 323.2 478.35V203.4C323.2 195.9 325.6 189.45 330.4 184.05C335.5 178.65 341.65 175.65 348.85 175.05C375.55 172.35 403 171 431.2 171C476.2 171 509.65 179.55 531.55 196.65C553.75 213.45 564.85 237.45 564.85 268.65C564.85 288.75 559 306.9 547.3 323.1C535.6 339 520.3 350.4 501.4 357.3C501.1 357.3 500.95 357.45 500.95 357.75C500.95 358.35 501.25 358.65 501.85 358.65C516.55 367.05 529 384.75 539.2 411.75L564.85 480.15C566.95 485.85 566.2 491.25 562.6 496.35C559 501.45 554.2 504 548.2 504H520.75C512.95 504 505.9 501.75 499.6 497.25C493.3 492.75 488.95 486.9 486.55 479.7L464.05 414.9C459.85 402.3 454.75 393.75 448.75 389.25C442.75 384.75 433.45 382.5 420.85 382.5H401.95C399.55 382.5 398.35 383.85 398.35 386.55V478.35C398.35 485.25 395.8 491.25 390.7 496.35C385.6 501.45 379.6 504 372.7 504H348.85Z" fill="#2C3E50"/>
</svg>
